<svg xmlns="http://www.w3.org/2000/svg" xmlns:xlink="http://www.w3.org/1999/xlink" width="2000" zoomAndPan="magnify" viewBox="0 0 1500 1499.999933" height="2000" preserveAspectRatio="xMidYMid meet" version="1.0"><defs><clipPath id="6db1ed53ce"><path d="M 54.207031 19 L 1445.457031 19 L 1445.457031 1481 L 54.207031 1481 Z M 54.207031 19 " clip-rule="nonzero"/></clipPath><clipPath id="5b2f9cff6e"><path d="M 525 435.945312 L 975 435.945312 L 975 885.945312 L 525 885.945312 Z M 525 435.945312 " clip-rule="nonzero"/></clipPath><clipPath id="af904cdf50"><path d="M 750 435.945312 C 625.734375 435.945312 525 536.683594 525 660.945312 C 525 785.210938 625.734375 885.945312 750 885.945312 C 874.265625 885.945312 975 785.210938 975 660.945312 C 975 536.683594 874.265625 435.945312 750 435.945312 Z M 750 435.945312 " clip-rule="nonzero"/></clipPath></defs><path fill="#015771" d="M 750.039062 380.628906 C 596.316406 380.628906 471.699219 511.511719 471.699219 672.964844 C 471.699219 834.429688 596.316406 965.316406 750.039062 965.316406 C 903.761719 965.316406 1028.359375 834.429688 1028.359375 672.964844 C 1028.359375 511.511719 903.761719 380.628906 750.039062 380.628906 " fill-opacity="1" fill-rule="nonzero"/><g clip-path="url(#6db1ed53ce)"><path fill="#015771" d="M 1212.289062 1254.550781 C 1150.648438 1104.074219 1021.242188 1009.960938 749.613281 1009.960938 C 478.34375 1009.960938 348.9375 1103.828125 287.195312 1253.957031 C 161.546875 1126.601562 83.378906 947.890625 83.378906 749.996094 C 83.378906 363.269531 381.851562 49.769531 750.039062 49.769531 C 1118.226562 49.769531 1416.699219 363.269531 1416.699219 749.996094 C 1416.699219 948.203125 1338.285156 1127.160156 1212.289062 1254.550781 Z M 750.039062 19.136719 C 365.738281 19.136719 54.207031 346.351562 54.207031 749.996094 C 54.207031 961.113281 139.429688 1151.328125 275.726562 1284.753906 C 399.996094 1406.417969 566.730469 1480.859375 750.039062 1480.859375 C 933.015625 1480.859375 1099.503906 1406.664062 1223.726562 1285.363281 C 1360.371094 1151.917969 1445.871094 961.441406 1445.871094 749.996094 C 1445.871094 346.351562 1134.320312 19.136719 750.039062 19.136719 " fill-opacity="1" fill-rule="nonzero"/></g><g clip-path="url(#5b2f9cff6e)"><g clip-path="url(#af904cdf50)"><path fill="#015771" d="M 525 435.945312 L 975 435.945312 L 975 885.945312 L 525 885.945312 Z M 525 435.945312 " fill-opacity="1" fill-rule="nonzero"/></g></g></svg>