<svg xmlns="http://www.w3.org/2000/svg" xmlns:xlink="http://www.w3.org/1999/xlink" width="2000" zoomAndPan="magnify" viewBox="0 0 1500 1499.999933" height="2000" preserveAspectRatio="xMidYMid meet" version="1.0"><defs><clipPath id="c951af6585"><path d="M 28 23.132812 L 1500 23.132812 L 1500 1500 L 28 1500 Z M 28 23.132812 " clip-rule="nonzero"/></clipPath><clipPath id="72e1403e23"><path d="M 1060 237.753906 L 1370 237.753906 L 1370 295.503906 L 1060 295.503906 Z M 1060 237.753906 " clip-rule="nonzero"/></clipPath></defs><g clip-path="url(#c951af6585)"><path fill="#023047" d="M 1573.246094 1508.53125 C 1569.464844 1489.21875 1562.328125 1462.769531 1551.832031 1428.761719 L 1262.140625 633.160156 C 1259.621094 626.863281 1254.164062 622.664062 1247.445312 620.988281 C 1200.425781 609.652344 1165.15625 568.085938 1165.15625 517.707031 L 1165.15625 451.789062 C 1165.15625 441.292969 1156.761719 432.476562 1145.84375 432.476562 L 1080.351562 432.476562 C 1021.152344 432.476562 973.289062 384.617188 973.289062 325.835938 L 973.289062 250.6875 C 973.289062 193.167969 1019.472656 146.144531 1076.992188 144.464844 C 1079.511719 139.429688 1079.929688 133.128906 1077.832031 127.253906 L 1067.753906 99.542969 C 1063.976562 88.207031 1059.359375 78.132812 1054.738281 70.152344 C 1049.703125 61.757812 1043.402344 55.039062 1035.007812 49.160156 C 1027.03125 43.285156 1016.535156 38.664062 1003.9375 35.308594 C 991.761719 31.949219 975.390625 29.429688 955.65625 27.332031 C 935.925781 25.652344 911.992188 24.390625 883.445312 23.972656 C 854.894531 23.550781 821.308594 23.132812 781.84375 23.132812 C 732.722656 23.132812 692.835938 23.972656 663.027344 26.070312 C 633.21875 28.171875 609.707031 31.527344 592.496094 36.148438 C 574.859375 40.765625 562.265625 47.902344 554.289062 57.140625 C 545.890625 66.375 538.753906 78.550781 533.296875 94.085938 L 50.480469 1424.5625 C 39.984375 1457.3125 32.84375 1483.761719 29.488281 1503.914062 C 26.128906 1524.066406 29.066406 1539.601562 38.304688 1550.097656 C 47.539062 1561.011719 63.914062 1567.730469 87.425781 1570.667969 C 110.9375 1573.1875 144.523438 1574.867188 187.765625 1574.867188 C 229.332031 1574.867188 262.917969 1574.027344 288.109375 1572.765625 C 313.71875 1571.085938 333.453125 1568.148438 347.308594 1563.109375 C 361.582031 1558.492188 371.65625 1551.773438 377.957031 1543.796875 C 384.253906 1535.402344 389.710938 1524.90625 394.328125 1511.050781 L 482.496094 1245.289062 L 1074.890625 1245.289062 L 1168.9375 1519.867188 C 1172.714844 1532.460938 1177.332031 1542.117188 1182.371094 1549.675781 C 1187.828125 1556.8125 1197.066406 1562.269531 1210.921875 1565.628906 C 1224.355469 1568.988281 1244.507812 1571.085938 1271.378906 1572.765625 C 1298.25 1574.027344 1335.613281 1574.867188 1382.636719 1574.867188 C 1435.535156 1574.867188 1476.261719 1573.605469 1504.808594 1571.085938 C 1533.359375 1568.988281 1552.671875 1562.691406 1563.167969 1552.613281 C 1573.664062 1542.117188 1577.023438 1527.84375 1573.246094 1508.53125 Z M 569.402344 968.195312 L 778.902344 338.011719 L 781.84375 338.011719 L 992.601562 968.195312 Z M 569.402344 968.195312 " fill-opacity="1" fill-rule="nonzero"/></g><path fill="#7bc8c3" d="M 1538.816406 217.097656 L 1380.957031 217.097656 L 1380.957031 59.238281 C 1380.957031 40.34375 1365.421875 25.230469 1346.949219 25.230469 L 1272.21875 25.230469 C 1253.324219 25.230469 1238.210938 40.34375 1238.210938 59.238281 L 1238.210938 217.097656 L 1080.351562 217.097656 C 1061.457031 217.097656 1046.34375 232.214844 1046.34375 250.6875 L 1046.34375 325.835938 C 1046.34375 344.3125 1061.457031 359.425781 1080.351562 359.425781 L 1238.210938 359.425781 L 1238.210938 517.707031 C 1238.210938 536.179688 1253.324219 551.292969 1272.21875 551.292969 L 1346.949219 551.292969 C 1365.421875 551.292969 1380.957031 536.179688 1380.957031 517.707031 L 1380.957031 359.425781 L 1538.816406 359.425781 C 1557.289062 359.425781 1572.824219 344.3125 1572.824219 325.835938 L 1572.824219 250.6875 C 1572.824219 232.214844 1557.289062 217.097656 1538.816406 217.097656 Z M 1538.816406 217.097656 " fill-opacity="1" fill-rule="evenodd"/><g clip-path="url(#72e1403e23)"><path fill="#7bc8c3" d="M 1088.90625 295.386719 C 1072.996094 295.386719 1060.105469 282.46875 1060.105469 266.585938 C 1060.105469 250.671875 1072.996094 237.78125 1088.90625 237.78125 L 1340.867188 237.78125 C 1356.78125 237.78125 1369.667969 250.671875 1369.667969 266.585938 C 1369.667969 282.46875 1356.78125 295.386719 1340.867188 295.386719 L 1088.90625 295.386719 " fill-opacity="1" fill-rule="nonzero"/></g></svg>