<svg xmlns="http://www.w3.org/2000/svg" xmlns:xlink="http://www.w3.org/1999/xlink" width="2000" zoomAndPan="magnify" viewBox="0 0 1500 1499.999933" height="2000" preserveAspectRatio="xMidYMid meet" version="1.0"><defs><clipPath id="1f3a8422db"><path d="M 17.171875 17.171875 L 1482.671875 17.171875 L 1482.671875 1482.671875 L 17.171875 1482.671875 Z M 17.171875 17.171875 " clip-rule="nonzero"/></clipPath></defs><g clip-path="url(#1f3a8422db)"><path fill="#000000" d="M 749.976562 17.171875 C 345.257812 17.171875 17.171875 345.257812 17.171875 749.976562 C 17.171875 1154.699219 345.257812 1482.785156 749.976562 1482.785156 C 1154.699219 1482.785156 1482.785156 1154.699219 1482.785156 749.976562 C 1482.785156 345.257812 1154.699219 17.171875 749.976562 17.171875 Z M 957.710938 512.777344 C 990.714844 481.148438 1023.714844 449.546875 1056.71875 417.917969 C 1067.699219 407.40625 1085.132812 407.757812 1095.675781 418.765625 C 1106.191406 429.746094 1105.839844 447.210938 1094.828125 457.726562 L 995.824219 552.582031 C 984.84375 563.097656 967.410156 562.746094 956.867188 551.734375 C 946.351562 540.753906 946.703125 523.289062 957.710938 512.777344 Z M 728.015625 336.496094 C 728.660156 321.28125 741.507812 309.480469 756.726562 310.152344 C 764.316406 310.472656 771.0625 313.863281 775.855469 319.0625 C 780.644531 324.257812 783.417969 331.269531 783.066406 338.863281 C 781.636719 372.039062 780.234375 405.1875 778.804688 438.363281 C 778.160156 453.578125 765.3125 465.378906 750.09375 464.707031 C 734.878906 464.0625 723.109375 451.210938 723.753906 435.996094 Z M 420.546875 404.28125 C 431.527344 393.765625 448.964844 394.117188 459.507812 405.128906 C 491.105469 438.128906 522.734375 471.128906 554.335938 504.132812 C 564.847656 515.113281 564.5 532.578125 553.488281 543.089844 C 542.507812 553.605469 525.070312 553.253906 514.527344 542.246094 L 419.699219 443.238281 C 409.1875 432.257812 409.539062 414.792969 420.546875 404.28125 Z M 310.328125 737.828125 C 310.328125 722.613281 322.652344 710.257812 337.867188 710.257812 L 437.429688 710.257812 C 445.050781 710.257812 451.914062 713.355469 456.90625 718.320312 C 461.902344 723.3125 464.96875 730.207031 464.96875 737.800781 C 464.96875 753.015625 452.644531 765.371094 437.429688 765.371094 C 404.25 765.371094 371.046875 765.371094 337.867188 765.371094 C 322.652344 765.371094 310.328125 753.042969 310.328125 737.800781 Z M 544.027344 985.488281 L 445.019531 1080.34375 C 434.039062 1090.859375 416.605469 1090.507812 406.0625 1079.496094 C 395.546875 1068.515625 395.898438 1051.050781 406.910156 1040.539062 C 439.910156 1008.910156 472.910156 977.308594 505.914062 945.679688 C 515.523438 936.480469 530.09375 935.605469 540.609375 942.90625 L 544.84375 946.527344 L 548.289062 950.9375 C 555.125 961.773438 553.632812 976.285156 544.027344 985.484375 Z M 771.96875 1163.460938 C 771.328125 1178.675781 758.476562 1190.476562 743.261719 1189.804688 C 728.046875 1189.132812 716.277344 1176.3125 716.917969 1161.09375 C 718.351562 1127.917969 719.75 1094.769531 721.183594 1061.59375 C 721.824219 1046.378906 734.675781 1034.578125 749.890625 1035.25 C 757.484375 1035.574219 764.230469 1038.960938 769.019531 1044.160156 C 773.78125 1049.355469 776.585938 1056.367188 776.234375 1063.960938 Z M 571.917969 915.042969 C 477.175781 816.128906 480.535156 659.09375 579.421875 564.351562 C 678.308594 469.613281 835.316406 472.941406 930.054688 571.859375 C 1024.796875 670.773438 1021.4375 827.808594 922.550781 922.550781 C 823.632812 1017.320312 666.65625 1013.960938 571.917969 915.042969 Z M 1081.191406 1093.980469 C 1070.210938 1104.496094 1052.773438 1104.144531 1042.230469 1093.136719 L 947.402344 994.132812 C 936.890625 983.148438 937.238281 965.683594 948.25 955.171875 C 959.230469 944.65625 976.667969 945.007812 987.210938 956.019531 C 1018.808594 989.019531 1050.4375 1022.023438 1082.039062 1055.023438 C 1092.550781 1066.003906 1092.199219 1083.46875 1081.191406 1093.980469 Z M 1162.089844 789.667969 L 1062.527344 789.667969 C 1047.3125 789.667969 1034.988281 777.34375 1034.988281 762.097656 C 1034.988281 746.882812 1047.3125 734.527344 1062.527344 734.527344 C 1095.707031 734.527344 1128.910156 734.527344 1162.089844 734.527344 C 1169.710938 734.527344 1176.574219 737.625 1181.566406 742.589844 C 1186.5625 747.582031 1189.628906 754.476562 1189.628906 762.070312 C 1189.628906 777.285156 1177.304688 789.636719 1162.089844 789.636719 Z M 1162.089844 789.667969 " fill-opacity="1" fill-rule="nonzero"/></g></svg>